<svg width="32" height="28" viewBox="0 0 32 28" fill="none" xmlns="http://www.w3.org/2000/svg">
<path d="M15.7812 5.07875L15.0382 5.79388C15.0429 5.79867 15.0475 5.8034 15.0522 5.80809L15.7812 5.07875ZM8.90709 20.0941C8.46732 19.7322 7.81743 19.7953 7.4555 20.2351C7.09357 20.6748 7.15667 21.3247 7.59644 21.6866L8.90709 20.0941ZM2.50149 15.9562C2.77477 16.4559 3.4014 16.6394 3.90108 16.3661C4.40079 16.0927 4.58431 15.4661 4.31101 14.9665L2.50149 15.9562ZM17.8022 8.5571C18.205 8.95975 18.8579 8.95963 19.2605 8.55682C19.6633 8.15403 19.6631 7.50107 19.2603 7.09842L17.8022 8.5571ZM3.0625 10.0789C3.0625 7.12145 4.73363 4.64135 7.01474 3.59864C9.23085 2.58567 12.2085 2.85393 15.0382 5.79388L16.5243 4.36361C13.1667 0.875221 9.26937 0.300292 6.15729 1.72283C3.11023 3.11565 1 6.3498 1 10.0789H3.0625ZM10.9652 24.3277C11.6695 24.883 12.4256 25.475 13.1918 25.9227C13.9579 26.3703 14.8319 26.7341 15.7812 26.7341V24.6716C15.3555 24.6716 14.8546 24.5057 14.2324 24.142C13.6105 23.7786 12.9654 23.2782 12.2421 22.708L10.9652 24.3277ZM20.5973 24.3277C22.5589 22.7813 25.0663 21.0095 27.0333 18.7946C29.0356 16.54 30.5625 13.744 30.5625 10.0789H28.5C28.5 13.1003 27.2636 15.4292 25.4911 17.4251C23.6832 19.4608 21.4044 21.0651 19.3205 22.708L20.5973 24.3277ZM30.5625 10.0789C30.5625 6.3498 28.4523 3.11565 25.4051 1.72283C22.2931 0.300292 18.3958 0.875221 15.0382 4.36361L16.5243 5.79388C19.3539 2.85393 22.3316 2.58567 24.5477 3.59864C26.8288 4.64135 28.5 7.12145 28.5 10.0789H30.5625ZM19.3205 22.708C18.5971 23.2782 17.952 23.7786 17.33 24.142C16.7079 24.5057 16.2069 24.6716 15.7812 24.6716V26.7341C16.7305 26.7341 17.6046 26.3703 18.3706 25.9227C19.1369 25.475 19.8929 24.883 20.5973 24.3277L19.3205 22.708ZM12.2421 22.708C11.1477 21.8453 10.0355 21.0228 8.90709 20.0941L7.59644 21.6866C8.73806 22.6262 9.94399 23.5227 10.9652 24.3277L12.2421 22.708ZM4.31101 14.9665C3.53935 13.5556 3.0625 11.9574 3.0625 10.0789H1C1 12.3305 1.57743 14.2666 2.50149 15.9562L4.31101 14.9665ZM15.0522 5.80809L17.8022 8.5571L19.2603 7.09842L16.5103 4.34942L15.0522 5.80809Z" fill="white"/>
<path d="M15.0382 5.79388L15.7812 5.07875L15.0522 5.80809M15.0382 5.79388C15.0429 5.79867 15.0475 5.8034 15.0522 5.80809M15.0382 5.79388C12.2085 2.85393 9.23085 2.58567 7.01474 3.59864C4.73363 4.64135 3.0625 7.12145 3.0625 10.0789M15.0382 5.79388L16.5243 4.36361C13.1667 0.875221 9.26937 0.300292 6.15729 1.72283C3.11023 3.11565 1 6.3498 1 10.0789M15.0522 5.80809L17.8022 8.5571M15.0522 5.80809L16.5103 4.34942L19.2603 7.09842M11.6036 23.5179L10.9652 24.3277M10.9652 24.3277C11.6695 24.883 12.4256 25.475 13.1918 25.9227C13.9579 26.3703 14.8319 26.7341 15.7812 26.7341M10.9652 24.3277L12.2421 22.708M10.9652 24.3277C9.94399 23.5227 8.73806 22.6262 7.59644 21.6866M19.9589 23.5179L19.3205 22.708M19.3205 22.708C21.4044 21.0651 23.6832 19.4608 25.4911 17.4251C27.2636 15.4292 28.5 13.1003 28.5 10.0789M19.3205 22.708L20.5973 24.3277M19.3205 22.708C18.5971 23.2782 17.952 23.7786 17.33 24.142C16.7079 24.5057 16.2069 24.6716 15.7812 24.6716M8.90709 20.0941C8.46732 19.7322 7.81743 19.7953 7.4555 20.2351C7.09357 20.6748 7.15667 21.3247 7.59644 21.6866M8.90709 20.0941L7.59644 21.6866M8.90709 20.0941C10.0355 21.0228 11.1477 21.8453 12.2421 22.708M2.50149 15.9562C2.77477 16.4559 3.4014 16.6394 3.90108 16.3661C4.40079 16.0927 4.58431 15.4661 4.31101 14.9665M2.50149 15.9562L4.31101 14.9665M2.50149 15.9562C1.57743 14.2666 1 12.3305 1 10.0789M4.31101 14.9665C3.53935 13.5556 3.0625 11.9574 3.0625 10.0789M17.8022 8.5571C18.205 8.95975 18.8579 8.95963 19.2605 8.55682C19.6633 8.15403 19.6631 7.50107 19.2603 7.09842M17.8022 8.5571L19.2603 7.09842M3.0625 10.0789H1M15.7812 26.7341V24.6716M15.7812 26.7341C16.7305 26.7341 17.6046 26.3703 18.3706 25.9227C19.1369 25.475 19.8929 24.883 20.5973 24.3277M15.7812 24.6716C15.3555 24.6716 14.8546 24.5057 14.2324 24.142C13.6105 23.7786 12.9654 23.2782 12.2421 22.708M20.5973 24.3277C22.5589 22.7813 25.0663 21.0095 27.0333 18.7946C29.0356 16.54 30.5625 13.744 30.5625 10.0789M30.5625 10.0789H28.5M30.5625 10.0789C30.5625 6.3498 28.4523 3.11565 25.4051 1.72283C22.2931 0.300292 18.3958 0.875221 15.0382 4.36361L16.5243 5.79388C19.3539 2.85393 22.3316 2.58567 24.5477 3.59864C26.8288 4.64135 28.5 7.12145 28.5 10.0789" stroke="white"/>
</svg>
